<?xml version="1.0" encoding="UTF-8" standalone="no"?>
<!-- Created with Inkscape (http://www.inkscape.org/) -->

<svg
  xmlns:dc="http://purl.org/dc/elements/1.1/"
  xmlns:cc="http://creativecommons.org/ns#"
  xmlns:rdf="http://www.w3.org/1999/02/22-rdf-syntax-ns#"
  xmlns:svg="http://www.w3.org/2000/svg"
  xmlns="http://www.w3.org/2000/svg"
  xmlns:sodipodi="http://sodipodi.sourceforge.net/DTD/sodipodi-0.dtd"
  xmlns:inkscape="http://www.inkscape.org/namespaces/inkscape"
  width="200mm"
  height="200mm"
  viewBox="0 0 200 200"
  version="1.1"
  id="svg8"
  sodipodi:docname="formaticon.svg"
  inkscape:version="0.92.4 (5da689c313, 2019-01-14)">
 <defs
   id="defs2" />
 <sodipodi:namedview
   id="base"
   pagecolor="#000000"
   bordercolor="#666666"
   borderopacity="1.0"
   inkscape:pageopacity="0"
   inkscape:pageshadow="2"
   inkscape:zoom="0.98995"
   inkscape:cx="399.76"
   inkscape:cy="380.04"
   inkscape:document-units="mm"
   inkscape:current-layer="text817"
   showgrid="false"
   inkscape:window-width="2560"
   inkscape:window-height="1017"
   inkscape:window-x="-8"
   inkscape:window-y="-8"
   inkscape:window-maximized="1" />
 <metadata
   id="metadata5">
  <rdf:RDF>
   <cc:Work
     rdf:about="">
    <dc:format>image/svg+xml</dc:format>
    <dc:type
      rdf:resource="http://purl.org/dc/dcmitype/StillImage" />
    <dc:title></dc:title>
   </cc:Work>
  </rdf:RDF>
 </metadata>
 <g
   inkscape:label="Layer 1"
   inkscape:groupmode="layer"
   id="layer1"
   transform="translate(0,-97)">
  <g
    aria-label="π"
    style="font-style:normal;font-variant:normal;font-weight:normal;font-stretch:normal;font-size:259.0481px;line-height:1.25;font-family:Montserrat;-inkscape-font-specification:'Montserrat weight=255';letter-spacing:0px;word-spacing:0px;fill:#000000;fill-opacity:1;stroke:none;stroke-width:6.4762"
    id="text817">
   <path
     id="path814"
     d="M 37.83,173.46 42.36,173.8 C 47.07,168.49 48.91,152.76 76.59,155.85 75.58,223.18 46.05,230.29 47.9,244.11 48.58,251.93 54.78,256.74 61.49,257.02 82.69,256.29 81.73,227.71 88.34,155.68 H 115.69 C 114.24,181.08 110.27,206.46 109.82,231.34 110.16,247.91 120.22,256.74 133.47,256.86 155.29,257.58 162.17,232.13 162.17,221.28 H 157.48 C 157.02,230.23 152.71,236.67 143.54,237.05 118.54,237.38 132.29,193.1 132.47,156.01 L 162.17,156.18 162,137.22 C 38.56,136.63 54.22,134.2 37.83,173.46 Z"
     style="fill:#ffffff;fill-opacity:1;stroke:none;stroke-width:1.419"
     inkscape:connector-curvature="0" />
  </g>
 </g>
</svg>
