<?xml version="1.0" encoding="UTF-8" standalone="no"?>
<!-- Created with Inkscape (http://www.inkscape.org/) -->

<svg
  xmlns:dc="http://purl.org/dc/elements/1.1/"
  xmlns:cc="http://creativecommons.org/ns#"
  xmlns:rdf="http://www.w3.org/1999/02/22-rdf-syntax-ns#"
  xmlns:svg="http://www.w3.org/2000/svg"
  xmlns="http://www.w3.org/2000/svg"
  xmlns:sodipodi="http://sodipodi.sourceforge.net/DTD/sodipodi-0.dtd"
  xmlns:inkscape="http://www.inkscape.org/namespaces/inkscape"
  width="200mm"
  height="200mm"
  viewBox="0 0 200 200"
  version="1.1"
  id="svg8"
  sodipodi:docname="multiformaticon.svg"
  inkscape:version="0.92.4 (5da689c313, 2019-01-14)">
 <defs
   id="defs2" />
 <sodipodi:namedview
   id="base"
   pagecolor="#000000"
   bordercolor="#666666"
   borderopacity="1.0"
   inkscape:pageopacity="0"
   inkscape:pageshadow="2"
   inkscape:zoom="0.49498"
   inkscape:cx="2003.7"
   inkscape:cy="655.16"
   inkscape:document-units="mm"
   inkscape:current-layer="g817"
   showgrid="false"
   inkscape:window-width="2560"
   inkscape:window-height="1017"
   inkscape:window-x="-8"
   inkscape:window-y="-8"
   inkscape:window-maximized="1" />
 <metadata
   id="metadata5">
  <rdf:RDF>
   <cc:Work
     rdf:about="">
    <dc:format>image/svg+xml</dc:format>
    <dc:type
      rdf:resource="http://purl.org/dc/dcmitype/StillImage" />
    <dc:title></dc:title>
   </cc:Work>
  </rdf:RDF>
 </metadata>
 <g
   inkscape:label="Layer 1"
   inkscape:groupmode="layer"
   id="layer1"
   transform="translate(0,-97)">
  <g
    aria-label="π"
    style="font-style:normal;font-variant:normal;font-weight:normal;font-stretch:normal;font-size:259.0481px;line-height:1.25;font-family:Montserrat;-inkscape-font-specification:'Montserrat weight=255';letter-spacing:0px;word-spacing:0px;fill:#000000;fill-opacity:1;stroke:none;stroke-width:6.4762"
    id="text817">
   <g
     id="g817"
     transform="translate(2.989,3.7)">
    <g
      id="g967"
      transform="translate(-510.05,-38.769)">
     <path
       sodipodi:nodetypes="ccccccccccccccccc"
       id="path834-4-2-0"
       d="M 650.86,147.59 C 589.46,147.51 597.24,150.5 585.27,179.15 L 589.19,179.45 C 593.25,174.84 594.85,161.24 618.8,163.92 618.49,185.01 614.94,199.26 610.61,209.43 L 624.94,209.55 C 626.15,197.35 627.27,182.22 628.95,163.76 H 652.6 C 651.35,185.72 647.92,207.68 647.52,229.19 647.83,243.5 656.52,251.15 667.98,251.25 686.84,251.87 692.79,229.88 692.79,220.48 H 688.73 C 688.35,228.23 684.62,233.79 676.69,234.14 655.07,234.41 666.97,196.11 667.11,164.05 L 692.79,164.21 692.65,147.8 C 675.97,147.72 662.23,147.59 650.86,147.59 Z"
       style="font-style:normal;font-variant:normal;font-weight:normal;font-stretch:normal;font-size:259.0481px;line-height:1.25;font-family:Montserrat;-inkscape-font-specification:'Montserrat weight=255';letter-spacing:0px;word-spacing:0px;fill:#ffffff;fill-opacity:1;stroke:none;stroke-width:1.22699"
       inkscape:connector-curvature="0" />
     <path
       sodipodi:nodetypes="cccc"
       id="path834-4-4-8"
       d="M 606.88,232.47 605.73,251.39 C 614.54,251.09 618.92,245.24 621.74,232.36 Z"
       style="font-style:normal;font-variant:normal;font-weight:normal;font-stretch:normal;font-size:259.0481px;line-height:1.25;font-family:Montserrat;-inkscape-font-specification:'Montserrat weight=255';letter-spacing:0px;word-spacing:0px;fill:#ffffff;fill-opacity:1;stroke:none;stroke-width:1.22699"
       inkscape:connector-curvature="0" />
     <path
       inkscape:connector-curvature="0"
       style="font-style:normal;font-variant:normal;font-weight:normal;font-stretch:normal;font-size:259.0481px;line-height:1.25;font-family:Montserrat;-inkscape-font-specification:'Montserrat weight=255';letter-spacing:0px;word-spacing:0px;fill:#ffffff;fill-opacity:1;stroke:none;stroke-width:1.227"
       d="M 521.34,244.3 525.26,244.59 C 529.32,239.99 530.92,226.4 554.86,229.07 553.99,287.29 528.45,293.43 530.05,305.37 530.63,312.15 536,316.3 541.8,316.55 560.13,315.92 559.31,291.21 565.01,228.92 H 588.66 C 587.41,250.88 583.97,272.83 583.58,294.34 583.88,308.67 592.58,316.3 604.04,316.41 622.9,317.02 628.85,295.02 628.85,285.64 H 624.79 C 624.41,293.38 620.68,298.95 612.75,299.29 591.13,299.56 603.03,261.27 603.17,229.21 L 628.85,229.35 628.71,212.96 C 521.97,212.44 535.52,210.35 521.34,244.3 Z"
       id="path834-1-4" />
    </g>
   </g>
  </g>
 </g>
</svg>
